<mxfile host="Electron" agent="Mozilla/5.0 (Windows NT 10.0; Win64; x64) AppleWebKit/537.36 (KHTML, like Gecko) draw.io/28.2.5 Chrome/138.0.7204.251 Electron/37.6.1 Safari/537.36" version="28.2.5">
  <diagram name="Страница — 1" id="7OqYVxwZs7NzSu7urRc7">
    <mxGraphModel dx="1042" dy="677" grid="1" gridSize="10" guides="1" tooltips="1" connect="1" arrows="1" fold="1" page="1" pageScale="1" pageWidth="827" pageHeight="1169" math="0" shadow="0">
      <root>
        <mxCell id="0" />
        <mxCell id="1" parent="0" />
        <mxCell id="eza31UwftHSti-V7xlUh-1" value="ПОЛЬЗОВАТЕЛЬ" style="shape=table;startSize=25;container=1;collapsible=0;childLayout=tableLayout;fixedRows=1;rowLines=1;fontStyle=1;align=center;resizeLast=1;" parent="1" vertex="1">
          <mxGeometry x="387" y="20" width="237" height="214" as="geometry" />
        </mxCell>
        <mxCell id="eza31UwftHSti-V7xlUh-2" style="shape=tableRow;horizontal=0;startSize=0;swimlaneHead=0;swimlaneBody=0;fillColor=none;collapsible=0;dropTarget=0;points=[[0,0.5],[1,0.5]];portConstraint=eastwest;top=0;left=0;right=0;bottom=0;" parent="eza31UwftHSti-V7xlUh-1" vertex="1">
          <mxGeometry y="25" width="237" height="47" as="geometry" />
        </mxCell>
        <mxCell id="eza31UwftHSti-V7xlUh-3" value="int" style="shape=partialRectangle;connectable=0;fillColor=none;top=0;left=0;bottom=0;right=0;align=left;spacingLeft=2;overflow=hidden;fontSize=11;" parent="eza31UwftHSti-V7xlUh-2" vertex="1">
          <mxGeometry width="48" height="47" as="geometry">
            <mxRectangle width="48" height="47" as="alternateBounds" />
          </mxGeometry>
        </mxCell>
        <mxCell id="eza31UwftHSti-V7xlUh-4" value="user_id" style="shape=partialRectangle;connectable=0;fillColor=none;top=0;left=0;bottom=0;right=0;align=left;spacingLeft=2;overflow=hidden;fontSize=11;" parent="eza31UwftHSti-V7xlUh-2" vertex="1">
          <mxGeometry x="48" width="167" height="47" as="geometry">
            <mxRectangle width="167" height="47" as="alternateBounds" />
          </mxGeometry>
        </mxCell>
        <mxCell id="eza31UwftHSti-V7xlUh-5" value="PK" style="shape=partialRectangle;connectable=0;fillColor=none;top=0;left=0;bottom=0;right=0;align=left;spacingLeft=2;overflow=hidden;fontSize=11;" parent="eza31UwftHSti-V7xlUh-2" vertex="1">
          <mxGeometry x="215" width="22" height="47" as="geometry">
            <mxRectangle width="22" height="47" as="alternateBounds" />
          </mxGeometry>
        </mxCell>
        <mxCell id="eza31UwftHSti-V7xlUh-6" style="shape=tableRow;horizontal=0;startSize=0;swimlaneHead=0;swimlaneBody=0;fillColor=none;collapsible=0;dropTarget=0;points=[[0,0.5],[1,0.5]];portConstraint=eastwest;top=0;left=0;right=0;bottom=0;" parent="eza31UwftHSti-V7xlUh-1" vertex="1">
          <mxGeometry y="72" width="237" height="47" as="geometry" />
        </mxCell>
        <mxCell id="eza31UwftHSti-V7xlUh-7" value="string" style="shape=partialRectangle;connectable=0;fillColor=none;top=0;left=0;bottom=0;right=0;align=left;spacingLeft=2;overflow=hidden;fontSize=11;" parent="eza31UwftHSti-V7xlUh-6" vertex="1">
          <mxGeometry width="48" height="47" as="geometry">
            <mxRectangle width="48" height="47" as="alternateBounds" />
          </mxGeometry>
        </mxCell>
        <mxCell id="eza31UwftHSti-V7xlUh-8" value="имя_пользователя" style="shape=partialRectangle;connectable=0;fillColor=none;top=0;left=0;bottom=0;right=0;align=left;spacingLeft=2;overflow=hidden;fontSize=11;" parent="eza31UwftHSti-V7xlUh-6" vertex="1">
          <mxGeometry x="48" width="167" height="47" as="geometry">
            <mxRectangle width="167" height="47" as="alternateBounds" />
          </mxGeometry>
        </mxCell>
        <mxCell id="eza31UwftHSti-V7xlUh-9" value="" style="shape=partialRectangle;connectable=0;fillColor=none;top=0;left=0;bottom=0;right=0;align=left;spacingLeft=2;overflow=hidden;fontSize=11;" parent="eza31UwftHSti-V7xlUh-6" vertex="1">
          <mxGeometry x="215" width="22" height="47" as="geometry">
            <mxRectangle width="22" height="47" as="alternateBounds" />
          </mxGeometry>
        </mxCell>
        <mxCell id="eza31UwftHSti-V7xlUh-10" style="shape=tableRow;horizontal=0;startSize=0;swimlaneHead=0;swimlaneBody=0;fillColor=none;collapsible=0;dropTarget=0;points=[[0,0.5],[1,0.5]];portConstraint=eastwest;top=0;left=0;right=0;bottom=0;" parent="eza31UwftHSti-V7xlUh-1" vertex="1">
          <mxGeometry y="119" width="237" height="47" as="geometry" />
        </mxCell>
        <mxCell id="eza31UwftHSti-V7xlUh-11" value="string" style="shape=partialRectangle;connectable=0;fillColor=none;top=0;left=0;bottom=0;right=0;align=left;spacingLeft=2;overflow=hidden;fontSize=11;" parent="eza31UwftHSti-V7xlUh-10" vertex="1">
          <mxGeometry width="48" height="47" as="geometry">
            <mxRectangle width="48" height="47" as="alternateBounds" />
          </mxGeometry>
        </mxCell>
        <mxCell id="eza31UwftHSti-V7xlUh-12" value="email" style="shape=partialRectangle;connectable=0;fillColor=none;top=0;left=0;bottom=0;right=0;align=left;spacingLeft=2;overflow=hidden;fontSize=11;" parent="eza31UwftHSti-V7xlUh-10" vertex="1">
          <mxGeometry x="48" width="167" height="47" as="geometry">
            <mxRectangle width="167" height="47" as="alternateBounds" />
          </mxGeometry>
        </mxCell>
        <mxCell id="eza31UwftHSti-V7xlUh-13" value="" style="shape=partialRectangle;connectable=0;fillColor=none;top=0;left=0;bottom=0;right=0;align=left;spacingLeft=2;overflow=hidden;fontSize=11;" parent="eza31UwftHSti-V7xlUh-10" vertex="1">
          <mxGeometry x="215" width="22" height="47" as="geometry">
            <mxRectangle width="22" height="47" as="alternateBounds" />
          </mxGeometry>
        </mxCell>
        <mxCell id="eza31UwftHSti-V7xlUh-14" style="shape=tableRow;horizontal=0;startSize=0;swimlaneHead=0;swimlaneBody=0;fillColor=none;collapsible=0;dropTarget=0;points=[[0,0.5],[1,0.5]];portConstraint=eastwest;top=0;left=0;right=0;bottom=0;" parent="eza31UwftHSti-V7xlUh-1" vertex="1">
          <mxGeometry y="166" width="237" height="47" as="geometry" />
        </mxCell>
        <mxCell id="eza31UwftHSti-V7xlUh-15" value="datetime" style="shape=partialRectangle;connectable=0;fillColor=none;top=0;left=0;bottom=0;right=0;align=left;spacingLeft=2;overflow=hidden;fontSize=11;" parent="eza31UwftHSti-V7xlUh-14" vertex="1">
          <mxGeometry width="48" height="47" as="geometry">
            <mxRectangle width="48" height="47" as="alternateBounds" />
          </mxGeometry>
        </mxCell>
        <mxCell id="eza31UwftHSti-V7xlUh-16" value="дата_создания" style="shape=partialRectangle;connectable=0;fillColor=none;top=0;left=0;bottom=0;right=0;align=left;spacingLeft=2;overflow=hidden;fontSize=11;" parent="eza31UwftHSti-V7xlUh-14" vertex="1">
          <mxGeometry x="48" width="167" height="47" as="geometry">
            <mxRectangle width="167" height="47" as="alternateBounds" />
          </mxGeometry>
        </mxCell>
        <mxCell id="eza31UwftHSti-V7xlUh-17" value="" style="shape=partialRectangle;connectable=0;fillColor=none;top=0;left=0;bottom=0;right=0;align=left;spacingLeft=2;overflow=hidden;fontSize=11;" parent="eza31UwftHSti-V7xlUh-14" vertex="1">
          <mxGeometry x="215" width="22" height="47" as="geometry">
            <mxRectangle width="22" height="47" as="alternateBounds" />
          </mxGeometry>
        </mxCell>
        <mxCell id="eza31UwftHSti-V7xlUh-18" value="ФОТО_КНИЖНОЙ_ПОЛКИ" style="shape=table;startSize=25;container=1;collapsible=0;childLayout=tableLayout;fixedRows=1;rowLines=1;fontStyle=1;align=center;resizeLast=1;" parent="1" vertex="1">
          <mxGeometry x="382" y="336" width="248" height="257" as="geometry" />
        </mxCell>
        <mxCell id="eza31UwftHSti-V7xlUh-19" style="shape=tableRow;horizontal=0;startSize=0;swimlaneHead=0;swimlaneBody=0;fillColor=none;collapsible=0;dropTarget=0;points=[[0,0.5],[1,0.5]];portConstraint=eastwest;top=0;left=0;right=0;bottom=0;" parent="eza31UwftHSti-V7xlUh-18" vertex="1">
          <mxGeometry y="25" width="248" height="46" as="geometry" />
        </mxCell>
        <mxCell id="eza31UwftHSti-V7xlUh-20" value="int" style="shape=partialRectangle;connectable=0;fillColor=none;top=0;left=0;bottom=0;right=0;align=left;spacingLeft=2;overflow=hidden;fontSize=11;" parent="eza31UwftHSti-V7xlUh-19" vertex="1">
          <mxGeometry width="48" height="46" as="geometry">
            <mxRectangle width="48" height="46" as="alternateBounds" />
          </mxGeometry>
        </mxCell>
        <mxCell id="eza31UwftHSti-V7xlUh-21" value="photo_id" style="shape=partialRectangle;connectable=0;fillColor=none;top=0;left=0;bottom=0;right=0;align=left;spacingLeft=2;overflow=hidden;fontSize=11;" parent="eza31UwftHSti-V7xlUh-19" vertex="1">
          <mxGeometry x="48" width="178" height="46" as="geometry">
            <mxRectangle width="178" height="46" as="alternateBounds" />
          </mxGeometry>
        </mxCell>
        <mxCell id="eza31UwftHSti-V7xlUh-22" value="PK" style="shape=partialRectangle;connectable=0;fillColor=none;top=0;left=0;bottom=0;right=0;align=left;spacingLeft=2;overflow=hidden;fontSize=11;" parent="eza31UwftHSti-V7xlUh-19" vertex="1">
          <mxGeometry x="226" width="22" height="46" as="geometry">
            <mxRectangle width="22" height="46" as="alternateBounds" />
          </mxGeometry>
        </mxCell>
        <mxCell id="eza31UwftHSti-V7xlUh-23" style="shape=tableRow;horizontal=0;startSize=0;swimlaneHead=0;swimlaneBody=0;fillColor=none;collapsible=0;dropTarget=0;points=[[0,0.5],[1,0.5]];portConstraint=eastwest;top=0;left=0;right=0;bottom=0;" parent="eza31UwftHSti-V7xlUh-18" vertex="1">
          <mxGeometry y="71" width="248" height="46" as="geometry" />
        </mxCell>
        <mxCell id="eza31UwftHSti-V7xlUh-24" value="int" style="shape=partialRectangle;connectable=0;fillColor=none;top=0;left=0;bottom=0;right=0;align=left;spacingLeft=2;overflow=hidden;fontSize=11;" parent="eza31UwftHSti-V7xlUh-23" vertex="1">
          <mxGeometry width="48" height="46" as="geometry">
            <mxRectangle width="48" height="46" as="alternateBounds" />
          </mxGeometry>
        </mxCell>
        <mxCell id="eza31UwftHSti-V7xlUh-25" value="user_id" style="shape=partialRectangle;connectable=0;fillColor=none;top=0;left=0;bottom=0;right=0;align=left;spacingLeft=2;overflow=hidden;fontSize=11;" parent="eza31UwftHSti-V7xlUh-23" vertex="1">
          <mxGeometry x="48" width="178" height="46" as="geometry">
            <mxRectangle width="178" height="46" as="alternateBounds" />
          </mxGeometry>
        </mxCell>
        <mxCell id="eza31UwftHSti-V7xlUh-26" value="FK" style="shape=partialRectangle;connectable=0;fillColor=none;top=0;left=0;bottom=0;right=0;align=left;spacingLeft=2;overflow=hidden;fontSize=11;" parent="eza31UwftHSti-V7xlUh-23" vertex="1">
          <mxGeometry x="226" width="22" height="46" as="geometry">
            <mxRectangle width="22" height="46" as="alternateBounds" />
          </mxGeometry>
        </mxCell>
        <mxCell id="eza31UwftHSti-V7xlUh-27" style="shape=tableRow;horizontal=0;startSize=0;swimlaneHead=0;swimlaneBody=0;fillColor=none;collapsible=0;dropTarget=0;points=[[0,0.5],[1,0.5]];portConstraint=eastwest;top=0;left=0;right=0;bottom=0;" parent="eza31UwftHSti-V7xlUh-18" vertex="1">
          <mxGeometry y="117" width="248" height="46" as="geometry" />
        </mxCell>
        <mxCell id="eza31UwftHSti-V7xlUh-28" value="string" style="shape=partialRectangle;connectable=0;fillColor=none;top=0;left=0;bottom=0;right=0;align=left;spacingLeft=2;overflow=hidden;fontSize=11;" parent="eza31UwftHSti-V7xlUh-27" vertex="1">
          <mxGeometry width="48" height="46" as="geometry">
            <mxRectangle width="48" height="46" as="alternateBounds" />
          </mxGeometry>
        </mxCell>
        <mxCell id="eza31UwftHSti-V7xlUh-29" value="url_фотографии" style="shape=partialRectangle;connectable=0;fillColor=none;top=0;left=0;bottom=0;right=0;align=left;spacingLeft=2;overflow=hidden;fontSize=11;" parent="eza31UwftHSti-V7xlUh-27" vertex="1">
          <mxGeometry x="48" width="178" height="46" as="geometry">
            <mxRectangle width="178" height="46" as="alternateBounds" />
          </mxGeometry>
        </mxCell>
        <mxCell id="eza31UwftHSti-V7xlUh-30" value="" style="shape=partialRectangle;connectable=0;fillColor=none;top=0;left=0;bottom=0;right=0;align=left;spacingLeft=2;overflow=hidden;fontSize=11;" parent="eza31UwftHSti-V7xlUh-27" vertex="1">
          <mxGeometry x="226" width="22" height="46" as="geometry">
            <mxRectangle width="22" height="46" as="alternateBounds" />
          </mxGeometry>
        </mxCell>
        <mxCell id="eza31UwftHSti-V7xlUh-31" style="shape=tableRow;horizontal=0;startSize=0;swimlaneHead=0;swimlaneBody=0;fillColor=none;collapsible=0;dropTarget=0;points=[[0,0.5],[1,0.5]];portConstraint=eastwest;top=0;left=0;right=0;bottom=0;" parent="eza31UwftHSti-V7xlUh-18" vertex="1">
          <mxGeometry y="163" width="248" height="46" as="geometry" />
        </mxCell>
        <mxCell id="eza31UwftHSti-V7xlUh-32" value="datetime" style="shape=partialRectangle;connectable=0;fillColor=none;top=0;left=0;bottom=0;right=0;align=left;spacingLeft=2;overflow=hidden;fontSize=11;" parent="eza31UwftHSti-V7xlUh-31" vertex="1">
          <mxGeometry width="48" height="46" as="geometry">
            <mxRectangle width="48" height="46" as="alternateBounds" />
          </mxGeometry>
        </mxCell>
        <mxCell id="eza31UwftHSti-V7xlUh-33" value="время_загрузки" style="shape=partialRectangle;connectable=0;fillColor=none;top=0;left=0;bottom=0;right=0;align=left;spacingLeft=2;overflow=hidden;fontSize=11;" parent="eza31UwftHSti-V7xlUh-31" vertex="1">
          <mxGeometry x="48" width="178" height="46" as="geometry">
            <mxRectangle width="178" height="46" as="alternateBounds" />
          </mxGeometry>
        </mxCell>
        <mxCell id="eza31UwftHSti-V7xlUh-34" value="" style="shape=partialRectangle;connectable=0;fillColor=none;top=0;left=0;bottom=0;right=0;align=left;spacingLeft=2;overflow=hidden;fontSize=11;" parent="eza31UwftHSti-V7xlUh-31" vertex="1">
          <mxGeometry x="226" width="22" height="46" as="geometry">
            <mxRectangle width="22" height="46" as="alternateBounds" />
          </mxGeometry>
        </mxCell>
        <mxCell id="eza31UwftHSti-V7xlUh-35" style="shape=tableRow;horizontal=0;startSize=0;swimlaneHead=0;swimlaneBody=0;fillColor=none;collapsible=0;dropTarget=0;points=[[0,0.5],[1,0.5]];portConstraint=eastwest;top=0;left=0;right=0;bottom=0;" parent="eza31UwftHSti-V7xlUh-18" vertex="1">
          <mxGeometry y="209" width="248" height="46" as="geometry" />
        </mxCell>
        <mxCell id="eza31UwftHSti-V7xlUh-36" value="string" style="shape=partialRectangle;connectable=0;fillColor=none;top=0;left=0;bottom=0;right=0;align=left;spacingLeft=2;overflow=hidden;fontSize=11;" parent="eza31UwftHSti-V7xlUh-35" vertex="1">
          <mxGeometry width="48" height="46" as="geometry">
            <mxRectangle width="48" height="46" as="alternateBounds" />
          </mxGeometry>
        </mxCell>
        <mxCell id="eza31UwftHSti-V7xlUh-37" value="статус" style="shape=partialRectangle;connectable=0;fillColor=none;top=0;left=0;bottom=0;right=0;align=left;spacingLeft=2;overflow=hidden;fontSize=11;" parent="eza31UwftHSti-V7xlUh-35" vertex="1">
          <mxGeometry x="48" width="178" height="46" as="geometry">
            <mxRectangle width="178" height="46" as="alternateBounds" />
          </mxGeometry>
        </mxCell>
        <mxCell id="eza31UwftHSti-V7xlUh-38" value="" style="shape=partialRectangle;connectable=0;fillColor=none;top=0;left=0;bottom=0;right=0;align=left;spacingLeft=2;overflow=hidden;fontSize=11;" parent="eza31UwftHSti-V7xlUh-35" vertex="1">
          <mxGeometry x="226" width="22" height="46" as="geometry">
            <mxRectangle width="22" height="46" as="alternateBounds" />
          </mxGeometry>
        </mxCell>
        <mxCell id="eza31UwftHSti-V7xlUh-39" value="КНИГА" style="shape=table;startSize=25;container=1;collapsible=0;childLayout=tableLayout;fixedRows=1;rowLines=1;fontStyle=1;align=center;resizeLast=1;" parent="1" vertex="1">
          <mxGeometry x="367" y="695" width="279" height="513" as="geometry" />
        </mxCell>
        <mxCell id="eza31UwftHSti-V7xlUh-40" style="shape=tableRow;horizontal=0;startSize=0;swimlaneHead=0;swimlaneBody=0;fillColor=none;collapsible=0;dropTarget=0;points=[[0,0.5],[1,0.5]];portConstraint=eastwest;top=0;left=0;right=0;bottom=0;" parent="eza31UwftHSti-V7xlUh-39" vertex="1">
          <mxGeometry y="25" width="279" height="44" as="geometry" />
        </mxCell>
        <mxCell id="eza31UwftHSti-V7xlUh-41" value="int" style="shape=partialRectangle;connectable=0;fillColor=none;top=0;left=0;bottom=0;right=0;align=left;spacingLeft=2;overflow=hidden;fontSize=11;" parent="eza31UwftHSti-V7xlUh-40" vertex="1">
          <mxGeometry width="48" height="44" as="geometry">
            <mxRectangle width="48" height="44" as="alternateBounds" />
          </mxGeometry>
        </mxCell>
        <mxCell id="eza31UwftHSti-V7xlUh-42" value="book_id" style="shape=partialRectangle;connectable=0;fillColor=none;top=0;left=0;bottom=0;right=0;align=left;spacingLeft=2;overflow=hidden;fontSize=11;" parent="eza31UwftHSti-V7xlUh-40" vertex="1">
          <mxGeometry x="48" width="209" height="44" as="geometry">
            <mxRectangle width="209" height="44" as="alternateBounds" />
          </mxGeometry>
        </mxCell>
        <mxCell id="eza31UwftHSti-V7xlUh-43" value="PK" style="shape=partialRectangle;connectable=0;fillColor=none;top=0;left=0;bottom=0;right=0;align=left;spacingLeft=2;overflow=hidden;fontSize=11;" parent="eza31UwftHSti-V7xlUh-40" vertex="1">
          <mxGeometry x="257" width="22" height="44" as="geometry">
            <mxRectangle width="22" height="44" as="alternateBounds" />
          </mxGeometry>
        </mxCell>
        <mxCell id="eza31UwftHSti-V7xlUh-44" style="shape=tableRow;horizontal=0;startSize=0;swimlaneHead=0;swimlaneBody=0;fillColor=none;collapsible=0;dropTarget=0;points=[[0,0.5],[1,0.5]];portConstraint=eastwest;top=0;left=0;right=0;bottom=0;" parent="eza31UwftHSti-V7xlUh-39" vertex="1">
          <mxGeometry y="69" width="279" height="44" as="geometry" />
        </mxCell>
        <mxCell id="eza31UwftHSti-V7xlUh-45" value="int" style="shape=partialRectangle;connectable=0;fillColor=none;top=0;left=0;bottom=0;right=0;align=left;spacingLeft=2;overflow=hidden;fontSize=11;" parent="eza31UwftHSti-V7xlUh-44" vertex="1">
          <mxGeometry width="48" height="44" as="geometry">
            <mxRectangle width="48" height="44" as="alternateBounds" />
          </mxGeometry>
        </mxCell>
        <mxCell id="eza31UwftHSti-V7xlUh-46" value="photo_id" style="shape=partialRectangle;connectable=0;fillColor=none;top=0;left=0;bottom=0;right=0;align=left;spacingLeft=2;overflow=hidden;fontSize=11;" parent="eza31UwftHSti-V7xlUh-44" vertex="1">
          <mxGeometry x="48" width="209" height="44" as="geometry">
            <mxRectangle width="209" height="44" as="alternateBounds" />
          </mxGeometry>
        </mxCell>
        <mxCell id="eza31UwftHSti-V7xlUh-47" value="FK" style="shape=partialRectangle;connectable=0;fillColor=none;top=0;left=0;bottom=0;right=0;align=left;spacingLeft=2;overflow=hidden;fontSize=11;" parent="eza31UwftHSti-V7xlUh-44" vertex="1">
          <mxGeometry x="257" width="22" height="44" as="geometry">
            <mxRectangle width="22" height="44" as="alternateBounds" />
          </mxGeometry>
        </mxCell>
        <mxCell id="eza31UwftHSti-V7xlUh-48" style="shape=tableRow;horizontal=0;startSize=0;swimlaneHead=0;swimlaneBody=0;fillColor=none;collapsible=0;dropTarget=0;points=[[0,0.5],[1,0.5]];portConstraint=eastwest;top=0;left=0;right=0;bottom=0;" parent="eza31UwftHSti-V7xlUh-39" vertex="1">
          <mxGeometry y="113" width="279" height="44" as="geometry" />
        </mxCell>
        <mxCell id="eza31UwftHSti-V7xlUh-49" value="int" style="shape=partialRectangle;connectable=0;fillColor=none;top=0;left=0;bottom=0;right=0;align=left;spacingLeft=2;overflow=hidden;fontSize=11;" parent="eza31UwftHSti-V7xlUh-48" vertex="1">
          <mxGeometry width="48" height="44" as="geometry">
            <mxRectangle width="48" height="44" as="alternateBounds" />
          </mxGeometry>
        </mxCell>
        <mxCell id="eza31UwftHSti-V7xlUh-50" value="location_id" style="shape=partialRectangle;connectable=0;fillColor=none;top=0;left=0;bottom=0;right=0;align=left;spacingLeft=2;overflow=hidden;fontSize=11;" parent="eza31UwftHSti-V7xlUh-48" vertex="1">
          <mxGeometry x="48" width="209" height="44" as="geometry">
            <mxRectangle width="209" height="44" as="alternateBounds" />
          </mxGeometry>
        </mxCell>
        <mxCell id="eza31UwftHSti-V7xlUh-51" value="FK" style="shape=partialRectangle;connectable=0;fillColor=none;top=0;left=0;bottom=0;right=0;align=left;spacingLeft=2;overflow=hidden;fontSize=11;" parent="eza31UwftHSti-V7xlUh-48" vertex="1">
          <mxGeometry x="257" width="22" height="44" as="geometry">
            <mxRectangle width="22" height="44" as="alternateBounds" />
          </mxGeometry>
        </mxCell>
        <mxCell id="eza31UwftHSti-V7xlUh-52" style="shape=tableRow;horizontal=0;startSize=0;swimlaneHead=0;swimlaneBody=0;fillColor=none;collapsible=0;dropTarget=0;points=[[0,0.5],[1,0.5]];portConstraint=eastwest;top=0;left=0;right=0;bottom=0;" parent="eza31UwftHSti-V7xlUh-39" vertex="1">
          <mxGeometry y="157" width="279" height="44" as="geometry" />
        </mxCell>
        <mxCell id="eza31UwftHSti-V7xlUh-53" value="int" style="shape=partialRectangle;connectable=0;fillColor=none;top=0;left=0;bottom=0;right=0;align=left;spacingLeft=2;overflow=hidden;fontSize=11;" parent="eza31UwftHSti-V7xlUh-52" vertex="1">
          <mxGeometry width="48" height="44" as="geometry">
            <mxRectangle width="48" height="44" as="alternateBounds" />
          </mxGeometry>
        </mxCell>
        <mxCell id="eza31UwftHSti-V7xlUh-54" value="status_id" style="shape=partialRectangle;connectable=0;fillColor=none;top=0;left=0;bottom=0;right=0;align=left;spacingLeft=2;overflow=hidden;fontSize=11;" parent="eza31UwftHSti-V7xlUh-52" vertex="1">
          <mxGeometry x="48" width="209" height="44" as="geometry">
            <mxRectangle width="209" height="44" as="alternateBounds" />
          </mxGeometry>
        </mxCell>
        <mxCell id="eza31UwftHSti-V7xlUh-55" value="FK" style="shape=partialRectangle;connectable=0;fillColor=none;top=0;left=0;bottom=0;right=0;align=left;spacingLeft=2;overflow=hidden;fontSize=11;" parent="eza31UwftHSti-V7xlUh-52" vertex="1">
          <mxGeometry x="257" width="22" height="44" as="geometry">
            <mxRectangle width="22" height="44" as="alternateBounds" />
          </mxGeometry>
        </mxCell>
        <mxCell id="eza31UwftHSti-V7xlUh-56" style="shape=tableRow;horizontal=0;startSize=0;swimlaneHead=0;swimlaneBody=0;fillColor=none;collapsible=0;dropTarget=0;points=[[0,0.5],[1,0.5]];portConstraint=eastwest;top=0;left=0;right=0;bottom=0;" parent="eza31UwftHSti-V7xlUh-39" vertex="1">
          <mxGeometry y="201" width="279" height="44" as="geometry" />
        </mxCell>
        <mxCell id="eza31UwftHSti-V7xlUh-57" value="string" style="shape=partialRectangle;connectable=0;fillColor=none;top=0;left=0;bottom=0;right=0;align=left;spacingLeft=2;overflow=hidden;fontSize=11;" parent="eza31UwftHSti-V7xlUh-56" vertex="1">
          <mxGeometry width="48" height="44" as="geometry">
            <mxRectangle width="48" height="44" as="alternateBounds" />
          </mxGeometry>
        </mxCell>
        <mxCell id="eza31UwftHSti-V7xlUh-58" value="название" style="shape=partialRectangle;connectable=0;fillColor=none;top=0;left=0;bottom=0;right=0;align=left;spacingLeft=2;overflow=hidden;fontSize=11;" parent="eza31UwftHSti-V7xlUh-56" vertex="1">
          <mxGeometry x="48" width="209" height="44" as="geometry">
            <mxRectangle width="209" height="44" as="alternateBounds" />
          </mxGeometry>
        </mxCell>
        <mxCell id="eza31UwftHSti-V7xlUh-59" value="" style="shape=partialRectangle;connectable=0;fillColor=none;top=0;left=0;bottom=0;right=0;align=left;spacingLeft=2;overflow=hidden;fontSize=11;" parent="eza31UwftHSti-V7xlUh-56" vertex="1">
          <mxGeometry x="257" width="22" height="44" as="geometry">
            <mxRectangle width="22" height="44" as="alternateBounds" />
          </mxGeometry>
        </mxCell>
        <mxCell id="eza31UwftHSti-V7xlUh-60" style="shape=tableRow;horizontal=0;startSize=0;swimlaneHead=0;swimlaneBody=0;fillColor=none;collapsible=0;dropTarget=0;points=[[0,0.5],[1,0.5]];portConstraint=eastwest;top=0;left=0;right=0;bottom=0;" parent="eza31UwftHSti-V7xlUh-39" vertex="1">
          <mxGeometry y="245" width="279" height="44" as="geometry" />
        </mxCell>
        <mxCell id="eza31UwftHSti-V7xlUh-61" value="string" style="shape=partialRectangle;connectable=0;fillColor=none;top=0;left=0;bottom=0;right=0;align=left;spacingLeft=2;overflow=hidden;fontSize=11;" parent="eza31UwftHSti-V7xlUh-60" vertex="1">
          <mxGeometry width="48" height="44" as="geometry">
            <mxRectangle width="48" height="44" as="alternateBounds" />
          </mxGeometry>
        </mxCell>
        <mxCell id="eza31UwftHSti-V7xlUh-62" value="автор" style="shape=partialRectangle;connectable=0;fillColor=none;top=0;left=0;bottom=0;right=0;align=left;spacingLeft=2;overflow=hidden;fontSize=11;" parent="eza31UwftHSti-V7xlUh-60" vertex="1">
          <mxGeometry x="48" width="209" height="44" as="geometry">
            <mxRectangle width="209" height="44" as="alternateBounds" />
          </mxGeometry>
        </mxCell>
        <mxCell id="eza31UwftHSti-V7xlUh-63" value="" style="shape=partialRectangle;connectable=0;fillColor=none;top=0;left=0;bottom=0;right=0;align=left;spacingLeft=2;overflow=hidden;fontSize=11;" parent="eza31UwftHSti-V7xlUh-60" vertex="1">
          <mxGeometry x="257" width="22" height="44" as="geometry">
            <mxRectangle width="22" height="44" as="alternateBounds" />
          </mxGeometry>
        </mxCell>
        <mxCell id="eza31UwftHSti-V7xlUh-64" style="shape=tableRow;horizontal=0;startSize=0;swimlaneHead=0;swimlaneBody=0;fillColor=none;collapsible=0;dropTarget=0;points=[[0,0.5],[1,0.5]];portConstraint=eastwest;top=0;left=0;right=0;bottom=0;" parent="eza31UwftHSti-V7xlUh-39" vertex="1">
          <mxGeometry y="289" width="279" height="44" as="geometry" />
        </mxCell>
        <mxCell id="eza31UwftHSti-V7xlUh-65" value="string" style="shape=partialRectangle;connectable=0;fillColor=none;top=0;left=0;bottom=0;right=0;align=left;spacingLeft=2;overflow=hidden;fontSize=11;" parent="eza31UwftHSti-V7xlUh-64" vertex="1">
          <mxGeometry width="48" height="44" as="geometry">
            <mxRectangle width="48" height="44" as="alternateBounds" />
          </mxGeometry>
        </mxCell>
        <mxCell id="eza31UwftHSti-V7xlUh-66" value="номер_isbn" style="shape=partialRectangle;connectable=0;fillColor=none;top=0;left=0;bottom=0;right=0;align=left;spacingLeft=2;overflow=hidden;fontSize=11;" parent="eza31UwftHSti-V7xlUh-64" vertex="1">
          <mxGeometry x="48" width="209" height="44" as="geometry">
            <mxRectangle width="209" height="44" as="alternateBounds" />
          </mxGeometry>
        </mxCell>
        <mxCell id="eza31UwftHSti-V7xlUh-67" value="" style="shape=partialRectangle;connectable=0;fillColor=none;top=0;left=0;bottom=0;right=0;align=left;spacingLeft=2;overflow=hidden;fontSize=11;" parent="eza31UwftHSti-V7xlUh-64" vertex="1">
          <mxGeometry x="257" width="22" height="44" as="geometry">
            <mxRectangle width="22" height="44" as="alternateBounds" />
          </mxGeometry>
        </mxCell>
        <mxCell id="eza31UwftHSti-V7xlUh-68" style="shape=tableRow;horizontal=0;startSize=0;swimlaneHead=0;swimlaneBody=0;fillColor=none;collapsible=0;dropTarget=0;points=[[0,0.5],[1,0.5]];portConstraint=eastwest;top=0;left=0;right=0;bottom=0;" parent="eza31UwftHSti-V7xlUh-39" vertex="1">
          <mxGeometry y="333" width="279" height="44" as="geometry" />
        </mxCell>
        <mxCell id="eza31UwftHSti-V7xlUh-69" value="string" style="shape=partialRectangle;connectable=0;fillColor=none;top=0;left=0;bottom=0;right=0;align=left;spacingLeft=2;overflow=hidden;fontSize=11;" parent="eza31UwftHSti-V7xlUh-68" vertex="1">
          <mxGeometry width="48" height="44" as="geometry">
            <mxRectangle width="48" height="44" as="alternateBounds" />
          </mxGeometry>
        </mxCell>
        <mxCell id="eza31UwftHSti-V7xlUh-70" value="издательство" style="shape=partialRectangle;connectable=0;fillColor=none;top=0;left=0;bottom=0;right=0;align=left;spacingLeft=2;overflow=hidden;fontSize=11;" parent="eza31UwftHSti-V7xlUh-68" vertex="1">
          <mxGeometry x="48" width="209" height="44" as="geometry">
            <mxRectangle width="209" height="44" as="alternateBounds" />
          </mxGeometry>
        </mxCell>
        <mxCell id="eza31UwftHSti-V7xlUh-71" value="" style="shape=partialRectangle;connectable=0;fillColor=none;top=0;left=0;bottom=0;right=0;align=left;spacingLeft=2;overflow=hidden;fontSize=11;" parent="eza31UwftHSti-V7xlUh-68" vertex="1">
          <mxGeometry x="257" width="22" height="44" as="geometry">
            <mxRectangle width="22" height="44" as="alternateBounds" />
          </mxGeometry>
        </mxCell>
        <mxCell id="eza31UwftHSti-V7xlUh-72" style="shape=tableRow;horizontal=0;startSize=0;swimlaneHead=0;swimlaneBody=0;fillColor=none;collapsible=0;dropTarget=0;points=[[0,0.5],[1,0.5]];portConstraint=eastwest;top=0;left=0;right=0;bottom=0;" parent="eza31UwftHSti-V7xlUh-39" vertex="1">
          <mxGeometry y="377" width="279" height="44" as="geometry" />
        </mxCell>
        <mxCell id="eza31UwftHSti-V7xlUh-73" value="int" style="shape=partialRectangle;connectable=0;fillColor=none;top=0;left=0;bottom=0;right=0;align=left;spacingLeft=2;overflow=hidden;fontSize=11;" parent="eza31UwftHSti-V7xlUh-72" vertex="1">
          <mxGeometry width="48" height="44" as="geometry">
            <mxRectangle width="48" height="44" as="alternateBounds" />
          </mxGeometry>
        </mxCell>
        <mxCell id="eza31UwftHSti-V7xlUh-74" value="год_издания" style="shape=partialRectangle;connectable=0;fillColor=none;top=0;left=0;bottom=0;right=0;align=left;spacingLeft=2;overflow=hidden;fontSize=11;" parent="eza31UwftHSti-V7xlUh-72" vertex="1">
          <mxGeometry x="48" width="209" height="44" as="geometry">
            <mxRectangle width="209" height="44" as="alternateBounds" />
          </mxGeometry>
        </mxCell>
        <mxCell id="eza31UwftHSti-V7xlUh-75" value="" style="shape=partialRectangle;connectable=0;fillColor=none;top=0;left=0;bottom=0;right=0;align=left;spacingLeft=2;overflow=hidden;fontSize=11;" parent="eza31UwftHSti-V7xlUh-72" vertex="1">
          <mxGeometry x="257" width="22" height="44" as="geometry">
            <mxRectangle width="22" height="44" as="alternateBounds" />
          </mxGeometry>
        </mxCell>
        <mxCell id="eza31UwftHSti-V7xlUh-76" style="shape=tableRow;horizontal=0;startSize=0;swimlaneHead=0;swimlaneBody=0;fillColor=none;collapsible=0;dropTarget=0;points=[[0,0.5],[1,0.5]];portConstraint=eastwest;top=0;left=0;right=0;bottom=0;" parent="eza31UwftHSti-V7xlUh-39" vertex="1">
          <mxGeometry y="421" width="279" height="44" as="geometry" />
        </mxCell>
        <mxCell id="eza31UwftHSti-V7xlUh-77" value="string" style="shape=partialRectangle;connectable=0;fillColor=none;top=0;left=0;bottom=0;right=0;align=left;spacingLeft=2;overflow=hidden;fontSize=11;" parent="eza31UwftHSti-V7xlUh-76" vertex="1">
          <mxGeometry width="48" height="44" as="geometry">
            <mxRectangle width="48" height="44" as="alternateBounds" />
          </mxGeometry>
        </mxCell>
        <mxCell id="eza31UwftHSti-V7xlUh-78" value="описание" style="shape=partialRectangle;connectable=0;fillColor=none;top=0;left=0;bottom=0;right=0;align=left;spacingLeft=2;overflow=hidden;fontSize=11;" parent="eza31UwftHSti-V7xlUh-76" vertex="1">
          <mxGeometry x="48" width="209" height="44" as="geometry">
            <mxRectangle width="209" height="44" as="alternateBounds" />
          </mxGeometry>
        </mxCell>
        <mxCell id="eza31UwftHSti-V7xlUh-79" value="" style="shape=partialRectangle;connectable=0;fillColor=none;top=0;left=0;bottom=0;right=0;align=left;spacingLeft=2;overflow=hidden;fontSize=11;" parent="eza31UwftHSti-V7xlUh-76" vertex="1">
          <mxGeometry x="257" width="22" height="44" as="geometry">
            <mxRectangle width="22" height="44" as="alternateBounds" />
          </mxGeometry>
        </mxCell>
        <mxCell id="eza31UwftHSti-V7xlUh-80" style="shape=tableRow;horizontal=0;startSize=0;swimlaneHead=0;swimlaneBody=0;fillColor=none;collapsible=0;dropTarget=0;points=[[0,0.5],[1,0.5]];portConstraint=eastwest;top=0;left=0;right=0;bottom=0;" parent="eza31UwftHSti-V7xlUh-39" vertex="1">
          <mxGeometry y="465" width="279" height="44" as="geometry" />
        </mxCell>
        <mxCell id="eza31UwftHSti-V7xlUh-81" value="datetime" style="shape=partialRectangle;connectable=0;fillColor=none;top=0;left=0;bottom=0;right=0;align=left;spacingLeft=2;overflow=hidden;fontSize=11;" parent="eza31UwftHSti-V7xlUh-80" vertex="1">
          <mxGeometry width="48" height="44" as="geometry">
            <mxRectangle width="48" height="44" as="alternateBounds" />
          </mxGeometry>
        </mxCell>
        <mxCell id="eza31UwftHSti-V7xlUh-82" value="дата_добавления" style="shape=partialRectangle;connectable=0;fillColor=none;top=0;left=0;bottom=0;right=0;align=left;spacingLeft=2;overflow=hidden;fontSize=11;" parent="eza31UwftHSti-V7xlUh-80" vertex="1">
          <mxGeometry x="48" width="209" height="44" as="geometry">
            <mxRectangle width="209" height="44" as="alternateBounds" />
          </mxGeometry>
        </mxCell>
        <mxCell id="eza31UwftHSti-V7xlUh-83" value="" style="shape=partialRectangle;connectable=0;fillColor=none;top=0;left=0;bottom=0;right=0;align=left;spacingLeft=2;overflow=hidden;fontSize=11;" parent="eza31UwftHSti-V7xlUh-80" vertex="1">
          <mxGeometry x="257" width="22" height="44" as="geometry">
            <mxRectangle width="22" height="44" as="alternateBounds" />
          </mxGeometry>
        </mxCell>
        <mxCell id="eza31UwftHSti-V7xlUh-84" value="МЕСТОНАХОЖДЕНИЕ_КНИГИ" style="shape=table;startSize=25;container=1;collapsible=0;childLayout=tableLayout;fixedRows=1;rowLines=1;fontStyle=1;align=center;resizeLast=1;" parent="1" vertex="1">
          <mxGeometry x="20" y="1310" width="213" height="117" as="geometry" />
        </mxCell>
        <mxCell id="eza31UwftHSti-V7xlUh-85" style="shape=tableRow;horizontal=0;startSize=0;swimlaneHead=0;swimlaneBody=0;fillColor=none;collapsible=0;dropTarget=0;points=[[0,0.5],[1,0.5]];portConstraint=eastwest;top=0;left=0;right=0;bottom=0;" parent="eza31UwftHSti-V7xlUh-84" vertex="1">
          <mxGeometry y="25" width="213" height="46" as="geometry" />
        </mxCell>
        <mxCell id="eza31UwftHSti-V7xlUh-86" value="int" style="shape=partialRectangle;connectable=0;fillColor=none;top=0;left=0;bottom=0;right=0;align=left;spacingLeft=2;overflow=hidden;fontSize=11;" parent="eza31UwftHSti-V7xlUh-85" vertex="1">
          <mxGeometry width="36" height="46" as="geometry">
            <mxRectangle width="36" height="46" as="alternateBounds" />
          </mxGeometry>
        </mxCell>
        <mxCell id="eza31UwftHSti-V7xlUh-87" value="location_id" style="shape=partialRectangle;connectable=0;fillColor=none;top=0;left=0;bottom=0;right=0;align=left;spacingLeft=2;overflow=hidden;fontSize=11;" parent="eza31UwftHSti-V7xlUh-85" vertex="1">
          <mxGeometry x="36" width="155" height="46" as="geometry">
            <mxRectangle width="155" height="46" as="alternateBounds" />
          </mxGeometry>
        </mxCell>
        <mxCell id="eza31UwftHSti-V7xlUh-88" value="PK" style="shape=partialRectangle;connectable=0;fillColor=none;top=0;left=0;bottom=0;right=0;align=left;spacingLeft=2;overflow=hidden;fontSize=11;" parent="eza31UwftHSti-V7xlUh-85" vertex="1">
          <mxGeometry x="191" width="22" height="46" as="geometry">
            <mxRectangle width="22" height="46" as="alternateBounds" />
          </mxGeometry>
        </mxCell>
        <mxCell id="eza31UwftHSti-V7xlUh-93" style="shape=tableRow;horizontal=0;startSize=0;swimlaneHead=0;swimlaneBody=0;fillColor=none;collapsible=0;dropTarget=0;points=[[0,0.5],[1,0.5]];portConstraint=eastwest;top=0;left=0;right=0;bottom=0;" parent="eza31UwftHSti-V7xlUh-84" vertex="1">
          <mxGeometry y="71" width="213" height="46" as="geometry" />
        </mxCell>
        <mxCell id="eza31UwftHSti-V7xlUh-94" value="string" style="shape=partialRectangle;connectable=0;fillColor=none;top=0;left=0;bottom=0;right=0;align=left;spacingLeft=2;overflow=hidden;fontSize=11;" parent="eza31UwftHSti-V7xlUh-93" vertex="1">
          <mxGeometry width="36" height="46" as="geometry">
            <mxRectangle width="36" height="46" as="alternateBounds" />
          </mxGeometry>
        </mxCell>
        <mxCell id="eza31UwftHSti-V7xlUh-95" value="описание" style="shape=partialRectangle;connectable=0;fillColor=none;top=0;left=0;bottom=0;right=0;align=left;spacingLeft=2;overflow=hidden;fontSize=11;" parent="eza31UwftHSti-V7xlUh-93" vertex="1">
          <mxGeometry x="36" width="155" height="46" as="geometry">
            <mxRectangle width="155" height="46" as="alternateBounds" />
          </mxGeometry>
        </mxCell>
        <mxCell id="eza31UwftHSti-V7xlUh-96" value="" style="shape=partialRectangle;connectable=0;fillColor=none;top=0;left=0;bottom=0;right=0;align=left;spacingLeft=2;overflow=hidden;fontSize=11;" parent="eza31UwftHSti-V7xlUh-93" vertex="1">
          <mxGeometry x="191" width="22" height="46" as="geometry">
            <mxRectangle width="22" height="46" as="alternateBounds" />
          </mxGeometry>
        </mxCell>
        <mxCell id="eza31UwftHSti-V7xlUh-109" value="СТАТУС_КНИГИ" style="shape=table;startSize=25;container=1;collapsible=0;childLayout=tableLayout;fixedRows=1;rowLines=1;fontStyle=1;align=center;resizeLast=1;" parent="1" vertex="1">
          <mxGeometry x="373" y="1375" width="265" height="172" as="geometry" />
        </mxCell>
        <mxCell id="eza31UwftHSti-V7xlUh-110" style="shape=tableRow;horizontal=0;startSize=0;swimlaneHead=0;swimlaneBody=0;fillColor=none;collapsible=0;dropTarget=0;points=[[0,0.5],[1,0.5]];portConstraint=eastwest;top=0;left=0;right=0;bottom=0;" parent="eza31UwftHSti-V7xlUh-109" vertex="1">
          <mxGeometry y="25" width="265" height="49" as="geometry" />
        </mxCell>
        <mxCell id="eza31UwftHSti-V7xlUh-111" value="int" style="shape=partialRectangle;connectable=0;fillColor=none;top=0;left=0;bottom=0;right=0;align=left;spacingLeft=2;overflow=hidden;fontSize=11;" parent="eza31UwftHSti-V7xlUh-110" vertex="1">
          <mxGeometry width="36" height="49" as="geometry">
            <mxRectangle width="36" height="49" as="alternateBounds" />
          </mxGeometry>
        </mxCell>
        <mxCell id="eza31UwftHSti-V7xlUh-112" value="status_id" style="shape=partialRectangle;connectable=0;fillColor=none;top=0;left=0;bottom=0;right=0;align=left;spacingLeft=2;overflow=hidden;fontSize=11;" parent="eza31UwftHSti-V7xlUh-110" vertex="1">
          <mxGeometry x="36" width="207" height="49" as="geometry">
            <mxRectangle width="207" height="49" as="alternateBounds" />
          </mxGeometry>
        </mxCell>
        <mxCell id="eza31UwftHSti-V7xlUh-113" value="PK" style="shape=partialRectangle;connectable=0;fillColor=none;top=0;left=0;bottom=0;right=0;align=left;spacingLeft=2;overflow=hidden;fontSize=11;" parent="eza31UwftHSti-V7xlUh-110" vertex="1">
          <mxGeometry x="243" width="22" height="49" as="geometry">
            <mxRectangle width="22" height="49" as="alternateBounds" />
          </mxGeometry>
        </mxCell>
        <mxCell id="eza31UwftHSti-V7xlUh-114" style="shape=tableRow;horizontal=0;startSize=0;swimlaneHead=0;swimlaneBody=0;fillColor=none;collapsible=0;dropTarget=0;points=[[0,0.5],[1,0.5]];portConstraint=eastwest;top=0;left=0;right=0;bottom=0;" parent="eza31UwftHSti-V7xlUh-109" vertex="1">
          <mxGeometry y="74" width="265" height="49" as="geometry" />
        </mxCell>
        <mxCell id="eza31UwftHSti-V7xlUh-115" value="string" style="shape=partialRectangle;connectable=0;fillColor=none;top=0;left=0;bottom=0;right=0;align=left;spacingLeft=2;overflow=hidden;fontSize=11;" parent="eza31UwftHSti-V7xlUh-114" vertex="1">
          <mxGeometry width="36" height="49" as="geometry">
            <mxRectangle width="36" height="49" as="alternateBounds" />
          </mxGeometry>
        </mxCell>
        <mxCell id="eza31UwftHSti-V7xlUh-116" value="название_статуса" style="shape=partialRectangle;connectable=0;fillColor=none;top=0;left=0;bottom=0;right=0;align=left;spacingLeft=2;overflow=hidden;fontSize=11;" parent="eza31UwftHSti-V7xlUh-114" vertex="1">
          <mxGeometry x="36" width="207" height="49" as="geometry">
            <mxRectangle width="207" height="49" as="alternateBounds" />
          </mxGeometry>
        </mxCell>
        <mxCell id="eza31UwftHSti-V7xlUh-117" value="" style="shape=partialRectangle;connectable=0;fillColor=none;top=0;left=0;bottom=0;right=0;align=left;spacingLeft=2;overflow=hidden;fontSize=11;" parent="eza31UwftHSti-V7xlUh-114" vertex="1">
          <mxGeometry x="243" width="22" height="49" as="geometry">
            <mxRectangle width="22" height="49" as="alternateBounds" />
          </mxGeometry>
        </mxCell>
        <mxCell id="eza31UwftHSti-V7xlUh-118" style="shape=tableRow;horizontal=0;startSize=0;swimlaneHead=0;swimlaneBody=0;fillColor=none;collapsible=0;dropTarget=0;points=[[0,0.5],[1,0.5]];portConstraint=eastwest;top=0;left=0;right=0;bottom=0;" parent="eza31UwftHSti-V7xlUh-109" vertex="1">
          <mxGeometry y="123" width="265" height="49" as="geometry" />
        </mxCell>
        <mxCell id="eza31UwftHSti-V7xlUh-119" value="string" style="shape=partialRectangle;connectable=0;fillColor=none;top=0;left=0;bottom=0;right=0;align=left;spacingLeft=2;overflow=hidden;fontSize=11;" parent="eza31UwftHSti-V7xlUh-118" vertex="1">
          <mxGeometry width="36" height="49" as="geometry">
            <mxRectangle width="36" height="49" as="alternateBounds" />
          </mxGeometry>
        </mxCell>
        <mxCell id="eza31UwftHSti-V7xlUh-120" value="описание_статуса" style="shape=partialRectangle;connectable=0;fillColor=none;top=0;left=0;bottom=0;right=0;align=left;spacingLeft=2;overflow=hidden;fontSize=11;" parent="eza31UwftHSti-V7xlUh-118" vertex="1">
          <mxGeometry x="36" width="207" height="49" as="geometry">
            <mxRectangle width="207" height="49" as="alternateBounds" />
          </mxGeometry>
        </mxCell>
        <mxCell id="eza31UwftHSti-V7xlUh-121" value="" style="shape=partialRectangle;connectable=0;fillColor=none;top=0;left=0;bottom=0;right=0;align=left;spacingLeft=2;overflow=hidden;fontSize=11;" parent="eza31UwftHSti-V7xlUh-118" vertex="1">
          <mxGeometry x="243" width="22" height="49" as="geometry">
            <mxRectangle width="22" height="49" as="alternateBounds" />
          </mxGeometry>
        </mxCell>
        <mxCell id="eza31UwftHSti-V7xlUh-139" value="загружает" style="curved=1;startArrow=ERmandOne;startSize=10;;endArrow=ERzeroToMany;endSize=10;;exitX=0.5;exitY=1;entryX=0.5;entryY=0;rounded=0;" parent="1" source="eza31UwftHSti-V7xlUh-1" target="eza31UwftHSti-V7xlUh-18" edge="1">
          <mxGeometry relative="1" as="geometry">
            <Array as="points" />
          </mxGeometry>
        </mxCell>
        <mxCell id="eza31UwftHSti-V7xlUh-140" value="содержит" style="curved=1;startArrow=ERmandOne;startSize=10;;endArrow=ERzeroToMany;endSize=10;;exitX=0.5;exitY=1;entryX=0.5;entryY=0;rounded=0;" parent="1" source="eza31UwftHSti-V7xlUh-18" target="eza31UwftHSti-V7xlUh-39" edge="1">
          <mxGeometry relative="1" as="geometry">
            <Array as="points" />
          </mxGeometry>
        </mxCell>
        <mxCell id="eza31UwftHSti-V7xlUh-141" value="имеет местоположение" style="curved=1;startArrow=ERzeroToMany;startSize=10;;endArrow=ERmandOne;endSize=10;;exitX=0;exitY=0.72;entryX=0.5;entryY=0;rounded=0;endFill=0;startFill=0;" parent="1" source="eza31UwftHSti-V7xlUh-39" target="eza31UwftHSti-V7xlUh-84" edge="1">
          <mxGeometry relative="1" as="geometry">
            <Array as="points">
              <mxPoint x="127" y="1259" />
            </Array>
            <mxPoint as="offset" />
          </mxGeometry>
        </mxCell>
        <mxCell id="eza31UwftHSti-V7xlUh-142" value="имеет статус" style="curved=1;startArrow=ERmandOne;startSize=10;;endArrow=ERmandOne;endSize=10;;exitX=0.5;exitY=1;entryX=0.5;entryY=0;rounded=0;" parent="1" source="eza31UwftHSti-V7xlUh-39" target="eza31UwftHSti-V7xlUh-109" edge="1">
          <mxGeometry relative="1" as="geometry">
            <Array as="points" />
          </mxGeometry>
        </mxCell>
      </root>
    </mxGraphModel>
  </diagram>
</mxfile>
